<?xml version="1.0" encoding="UTF-8"?>
<svg width="16px" height="16px" viewBox="0 0 16 16" version="1.1" xmlns="http://www.w3.org/2000/svg" xmlns:xlink="http://www.w3.org/1999/xlink">
    <title>16x16 copy 6</title>
    <defs>
        <path d="M4.4867991,4.5436481e-17 L9.5132009,4.07980589e-16 C11.0733587,-2.37048471e-16 11.6391096,0.16244482 12.20948,0.467482232 C12.7798504,0.772519644 13.2274804,1.22014965 13.5325178,1.79052002 C13.8375552,2.36089039 14,2.92664131 14,4.4867991 L14,9.5132009 C14,11.0733587 13.8375552,11.6391096 13.5325178,12.20948 C13.2274804,12.7798504 12.7798504,13.2274804 12.20948,13.5325178 C11.6391096,13.8375552 11.0733587,14 9.5132009,14 L4.4867991,14 C2.92664131,14 2.36089039,13.8375552 1.79052002,13.5325178 C1.22014965,13.2274804 0.772519644,12.7798504 0.467482232,12.20948 C0.16244482,11.6391096 -6.15079984e-17,11.0733587 1.05860499e-16,9.5132009 L3.47556571e-16,4.4867991 C-2.01940376e-16,2.92664131 0.16244482,2.36089039 0.467482232,1.79052002 C0.772519644,1.22014965 1.22014965,0.772519644 1.79052002,0.467482232 C2.36089039,0.16244482 2.92664131,-2.63999039e-17 4.4867991,4.5436481e-17 Z" id="path-1"></path>
        <filter x="-15.2%" y="-9.8%" width="130.4%" height="132.1%" filterUnits="objectBoundingBox" id="filter-2">
            <feMorphology radius="0.5" operator="dilate" in="SourceAlpha" result="shadowSpreadOuter1"></feMorphology>
            <feOffset dx="0" dy="1" in="shadowSpreadOuter1" result="shadowOffsetOuter1"></feOffset>
            <feGaussianBlur stdDeviation="0.375" in="shadowOffsetOuter1" result="shadowBlurOuter1"></feGaussianBlur>
            <feComposite in="shadowBlurOuter1" in2="SourceAlpha" operator="out" result="shadowBlurOuter1"></feComposite>
            <feColorMatrix values="0 0 0 0 0   0 0 0 0 0   0 0 0 0 0  0 0 0 0.05 0" type="matrix" in="shadowBlurOuter1" result="shadowMatrixOuter1"></feColorMatrix>
            <feMorphology radius="0.5" operator="dilate" in="SourceAlpha" result="shadowSpreadOuter2"></feMorphology>
            <feOffset dx="0" dy="0.25" in="shadowSpreadOuter2" result="shadowOffsetOuter2"></feOffset>
            <feGaussianBlur stdDeviation="0.125" in="shadowOffsetOuter2" result="shadowBlurOuter2"></feGaussianBlur>
            <feComposite in="shadowBlurOuter2" in2="SourceAlpha" operator="out" result="shadowBlurOuter2"></feComposite>
            <feColorMatrix values="0 0 0 0 0   0 0 0 0 0   0 0 0 0 0  0 0 0 0.15 0" type="matrix" in="shadowBlurOuter2" result="shadowMatrixOuter2"></feColorMatrix>
            <feMerge>
                <feMergeNode in="shadowMatrixOuter1"></feMergeNode>
                <feMergeNode in="shadowMatrixOuter2"></feMergeNode>
            </feMerge>
        </filter>
    </defs>
    <g id="16x16-copy-6" stroke="none" stroke-width="1" fill="none" fill-rule="evenodd">
        <g id="Group" transform="translate(1.000000, 1.000000)">
            <g id="Rectangle" opacity="0.5">
                <use fill="black" fill-opacity="1" filter="url(#filter-2)" xlink:href="#path-1"></use>
                <path stroke-opacity="0.02" stroke="#000000" stroke-width="0.5" d="M9.5132009,-0.25 C11.144158,-0.25 11.7320688,-0.0713467965 12.3273797,0.247028932 C12.9419616,0.57571093 13.4242891,1.0580384 13.7529711,1.6726203 C14.0713468,2.26793116 14.25,2.855842 14.25,4.4867991 L14.25,4.4867991 L14.25,9.5132009 C14.25,11.144158 14.0713468,11.7320688 13.7529711,12.3273797 C13.4242891,12.9419616 12.9419616,13.4242891 12.3273797,13.7529711 C11.7320688,14.0713468 11.144158,14.25 9.5132009,14.25 L9.5132009,14.25 L4.4867991,14.25 C2.855842,14.25 2.26793116,14.0713468 1.6726203,13.7529711 C1.0580384,13.4242891 0.57571093,12.9419616 0.247028932,12.3273797 C-0.0713467965,11.7320688 -0.25,11.144158 -0.25,9.5132009 L-0.25,9.5132009 L-0.25,4.4867991 C-0.25,2.855842 -0.0713467965,2.26793116 0.247028932,1.6726203 C0.57571093,1.0580384 1.0580384,0.57571093 1.6726203,0.247028932 C2.26793116,-0.0713467965 2.855842,-0.25 4.4867991,-0.25 L4.4867991,-0.25 Z" fill="#FFFFFF" fill-rule="evenodd"></path>
            </g>
            <text id="􀆅" font-family="SFProText-Bold, SF Pro Text" font-size="10" font-weight="bold" letter-spacing="-0.06" fill="#000000" fill-opacity="0.25">
                <tspan x="1.24875" y="10.5">􀆅</tspan>
            </text>
        </g>
    </g>
</svg>